<svg xmlns="http://www.w3.org/2000/svg"><symbol id="shape-chevron-down" viewBox="-173.8 401.9 24 14.8"><path d="M-171 401.9l9.2 9.2 9.2-9.2 2.8 2.8-12 12-12-12 2.8-2.8z"/><path class="st0" d="M-273 396.1h48v48h-48v-48z"/></symbol><symbol id="shape-chevron-left" viewBox="0 0 6.9 18.2"><path class="st0" d="M6.3 18.2c-.2 0-.3-.1-.4-.2L.1 9.4C0 9.2 0 9 .1 8.8L6 .2c.1-.2.4-.3.6-.1.2.2.3.5.1.7L1.1 9.1l5.7 8.3c.2.2.1.5-.1.7-.2.1-.3.1-.4.1z"/></symbol><symbol id="shape-chevron-right" viewBox="0 0 6.9 18.2"><path class="st0" d="M.5 18.2c.2 0 .3-.1.4-.2l5.8-8.6c.1-.2.1-.4 0-.6L.9.2C.8 0 .4-.1.2.1 0 .2-.1.6.1.8l5.7 8.3-5.7 8.3c-.1.3-.1.6.1.7.1.1.2.1.3.1z"/></symbol><symbol id="shape-envelope" viewBox="-658 -20.1 612 612"><path class="st0" d="M-352 591.9c-28.2 0-55.3-3.7-81.4-11-26.1-7.3-50.5-17.6-73.1-30.9s-43.2-29.2-61.8-47.7c-18.6-18.6-34.5-39.2-47.7-61.8-13.3-22.6-23.6-47-30.9-73.1-7.3-26.1-11-53.2-11-81.4 0-28.2 3.7-55.3 11-81.4s17.6-50.5 30.9-73.1 29.2-43.2 47.7-61.8c18.6-18.6 39.2-34.5 61.8-47.7s47-23.6 73.1-30.9 53.2-11 81.4-11c42 0 81.7 8.1 119 24.2s69.8 37.9 97.3 65.5 49.4 60 65.5 97.3 24.2 77 24.2 119c0 28.2-3.7 55.3-11 81.4-7.3 26.1-17.6 50.5-30.9 73.1-13.3 22.6-29.2 43.2-47.7 61.8-18.6 18.6-39.2 34.5-61.8 47.7-22.6 13.3-47 23.6-73.1 30.9-26.2 7.2-53.3 10.9-81.5 10.9zm147.5-432.1h-290.1c-2.9 0-5.3.9-7.3 2.8-2 1.8-3.1 4.4-3.1 7.6v32.4c0 1.6.6 2.4 1.8 2.4l152.4 86.9 1.2.6c.8 0 1.4-.2 1.8-.6l147.5-86.9c.8-.4 1.4-.6 1.8-.6.4 0 1-.2 1.8-.6 1.6 0 2.4-.8 2.4-2.4v-31.2c0-3.3-1-5.8-3.1-7.6s-4.3-2.8-7.1-2.8zm-208.1 130.4c.4-.4.6-1 .6-1.8 0-1.2-.4-1.8-1.2-1.8l-87.5-50.2c-1.2-.4-2.2-.4-3.1 0-.8 0-1.2.6-1.2 1.8v131.6c0 1.2.6 2 1.8 2.4h1.2c.8 0 1.2-.2 1.2-.6l88.2-81.4zm106.5 9.8c-.4-1.2-1.4-1.4-3.1-.6l-33.7 19.6c-4.1 2.4-8.4 2.4-12.9 0l-29.4-16.5c-1.2-.8-2.2-.8-3.1 0l-112 104c-.4.4-.6 1.2-.6 2.4 0 .4.4 1 1.2 1.8 2.4.8 4.1 1.2 4.9 1.2h287c.8 0 1.6-.4 2.4-1.2 0-1.6-.2-2.6-.6-3.1L-306.1 300zm110.2-66.1h-2.4l-83.2 49.6c-.8 0-1.2.6-1.2 1.8-.4.4-.2 1 .6 1.8l83.2 90c.8.8 1.4 1.2 1.8 1.2h1.2c1.2-1.2 1.8-2 1.8-2.4V236.3c0-.8-.6-1.6-1.8-2.4z"/></symbol><symbol id="shape-facebook-2" viewBox="63.6 185.4 219.3 470.5"><path d="M209.5 339.5V299c0-6.1.3-10.8.8-14.1.6-3.3 1.9-6.6 3.9-9.9 2-3.2 5.2-5.5 9.7-6.7 4.5-1.2 10.4-1.9 17.9-1.9h40.5v-81.1h-64.8c-37.5 0-64.4 8.9-80.8 26.7-16.4 17.8-24.6 44-24.6 78.7v48.8H63.6v81.1h48.5v235.3h97.4V420.6h64.8l8.6-81.1h-73.4z"/></symbol><symbol id="shape-facebook" viewBox="-523.5 354.9 96 96"><path class="st0" d="M-475.5 354.9c-26.5 0-48 21.5-48 48s21.5 48 48 48 48-21.5 48-48-21.5-48-48-48zm11.4 33.2h-7.2c-.9 0-1.8 1.1-1.8 2.6v5.2h9v7.4h-9v22.3h-8.5v-22.3h-7.7v-7.4h7.7v-4.4c0-6.3 4.4-11.4 10.3-11.4h7.2v8z"/></symbol><symbol id="shape-file" viewBox="0 0 60 60"><path d="M45 25H20a1 1 0 1 0 0 2h25a1 1 0 1 0 0-2zM20 19h10a1 1 0 1 0 0-2H20a1 1 0 1 0 0 2zM45 33H20a1 1 0 1 0 0 2h25a1 1 0 1 0 0-2zM45 41H20a1 1 0 1 0 0 2h25a1 1 0 1 0 0-2zM45 49H20a1 1 0 1 0 0 2h25a1 1 0 1 0 0-2z"/><path d="M49 14.586V0H6v55h5v5h43V19.586l-5-5zm-9-6.172l9 9L50.586 19H40V8.414zM8 53V2h39v10.586L39.414 5H11v48H8zm5 5V7h25v14h14v37H13z"/></symbol><symbol id="shape-google-2" viewBox="0 0 475.092 475.092"><path d="M273.372 302.498a148.384 148.384 0 0 0-16.7-18.842c-6.091-5.804-12.183-11.088-18.271-15.845-6.092-4.757-11.659-9.329-16.702-13.709-5.042-4.374-9.135-8.945-12.275-13.702-3.14-4.757-4.711-9.61-4.711-14.558 0-6.855 2.19-13.278 6.567-19.274 4.377-5.996 9.707-11.799 15.986-17.417 6.28-5.617 12.559-11.753 18.844-18.415 6.276-6.665 11.604-15.465 15.985-26.412 4.373-10.944 6.563-23.458 6.563-37.542 0-16.75-3.713-32.835-11.136-48.25-7.423-15.418-17.89-27.412-31.405-35.976h38.54L303.2 0H178.441c-17.699 0-35.498 1.906-53.384 5.72-26.453 5.9-48.723 19.368-66.806 40.397-18.08 21.033-27.122 44.873-27.122 71.52 0 28.171 10.138 51.583 30.406 70.233 20.269 18.649 44.585 27.978 72.945 27.978 5.71 0 12.371-.478 19.985-1.427-.381 1.521-1.043 3.567-1.997 6.136s-1.715 4.62-2.286 6.14c-.57 1.521-1.047 3.375-1.425 5.566a38.99 38.99 0 0 0-.571 6.71c0 12.563 6.086 26.744 18.271 42.541-14.465.387-28.737 1.67-42.825 3.86-14.084 2.19-28.833 5.616-44.252 10.28-15.417 4.661-29.217 11.42-41.396 20.27-12.182 8.854-21.317 19.366-27.408 31.549C3.533 361.559.01 374.405.01 386.017c0 12.751 2.857 24.314 8.565 34.69 5.708 10.369 13.035 18.842 21.982 25.406 8.945 6.57 19.273 12.083 30.978 16.562 11.704 4.47 23.315 7.659 34.829 9.562 11.516 1.903 22.888 2.854 34.119 2.854 51.007 0 90.981-12.464 119.909-37.397 26.648-23.223 39.971-50.062 39.971-80.517 0-10.855-1.57-20.984-4.712-30.409-3.141-9.431-7.231-17.514-12.279-24.27zM163.311 198.722c-9.707 0-18.937-2.475-27.694-7.426-8.757-4.95-16.18-11.374-22.27-19.273-6.088-7.898-11.418-16.796-15.987-26.695-4.567-9.896-7.944-19.792-10.135-29.692-2.19-9.895-3.284-19.318-3.284-28.265 0-18.271 4.854-33.974 14.562-47.108 9.705-13.134 23.411-19.701 41.112-19.701 12.563 0 23.935 3.899 34.118 11.704 10.183 7.804 18.177 17.701 23.984 29.692a187.496 187.496 0 0 1 13.417 37.257c3.14 12.847 4.711 24.983 4.711 36.403 0 19.036-4.139 34.317-12.419 45.833-8.282 11.513-21.651 17.271-40.115 17.271zm78.94 214.401c-5.23 8.949-12.319 15.94-21.267 20.981-8.946 5.048-18.509 8.758-28.693 11.14-10.183 2.385-20.889 3.572-32.12 3.572-12.182 0-24.27-1.431-36.258-4.284-11.99-2.851-23.459-7.187-34.403-12.991-10.944-5.8-19.795-13.798-26.551-23.982-6.757-10.184-10.135-21.744-10.135-34.69 0-11.419 2.568-21.601 7.708-30.55 5.142-8.945 11.709-16.084 19.702-21.408 7.994-5.332 17.319-9.713 27.979-13.131 10.66-3.433 20.937-5.808 30.833-7.139 9.895-1.335 19.985-1.995 30.262-1.995 6.283 0 11.043.191 14.277.567 1.143.767 4.043 2.759 8.708 5.996s7.804 5.428 9.423 6.57c1.615 1.137 4.567 3.326 8.85 6.563 4.281 3.237 7.327 5.661 9.135 7.279 1.803 1.618 4.421 4.045 7.849 7.279 3.424 3.237 5.948 6.043 7.566 8.422a982.05 982.05 0 0 0 5.996 8.702c2.38 3.433 4.043 6.715 4.998 9.855a158.985 158.985 0 0 1 2.707 10.277c.855 3.72 1.283 7.569 1.283 11.57.005 11.987-2.613 22.456-7.849 31.397z"/><path d="M401.998 73.089V0h-36.549v73.089h-73.091v36.547h73.091v73.089h36.549v-73.089h73.083V73.089z"/></symbol><symbol id="shape-google" viewBox="-744 313.1 96 96"><path class="st0" d="M-700.5 347.5c-1.2-4.2-3.2-5.5-6.2-5.5-.3 0-.7 0-1 .1-1.3.4-2.4 1.5-2.9 3.1-.6 1.7-.6 3.4-.1 5.3.9 3.5 3.4 6 5.9 6 .3 0 .7 0 1-.1 2.7-.7 4.4-4.9 3.3-8.9zm4.5-34.4c-26.5 0-48 21.5-48 48s21.5 48 48 48 48-21.5 48-48-21.5-48-48-48zm-2.8 68.6c-3 1.5-6.3 1.6-7.5 1.6h-.4-.2c-2 0-11.7-.4-11.7-9.3 0-8.7 10.6-9.4 13.9-9.4h.1c-1.9-2.5-1.5-5-1.5-5h-.7c-1.2 0-3.6-.2-5.6-1.5-2.5-1.6-3.7-4.3-3.7-8.1 0-10.7 11.6-11.1 11.7-11.1h11.6v.3c0 1.3-2.3 1.5-3.9 1.8-.5.1-1.6.2-1.9.3 2.9 1.6 3.4 4 3.4 7.7 0 4.2-1.6 6.4-3.4 8-1.1 1-1.9 1.7-1.9 2.7 0 1 1.2 2 2.5 3.2 2.2 1.9 5.2 4.6 5.2 9.1-.1 4.5-2.1 7.8-6 9.7zm25.4-20.6h-7.6v7.6h-4.8v-7.6h-7.6v-4.8h7.6v-7.6h4.8v7.6h7.6v4.8zm-31.5 5.8h-.8c-2.2.2-4.3 1-5.8 2.3-1.5 1.3-2.2 3-2.1 4.7.2 3.5 4 5.6 8.7 5.3 4.6-.3 7.6-3 7.4-6.5-.2-3.3-3.1-5.8-7.4-5.8z"/></symbol><symbol id="shape-instagram-2" viewBox="0 0 169.063 169.063"><path d="M122.406 0H46.654C20.929 0 0 20.93 0 46.655v75.752c0 25.726 20.929 46.655 46.654 46.655h75.752c25.727 0 46.656-20.93 46.656-46.655V46.655C169.063 20.93 148.133 0 122.406 0zm31.657 122.407c0 17.455-14.201 31.655-31.656 31.655H46.654C29.2 154.063 15 139.862 15 122.407V46.655C15 29.201 29.2 15 46.654 15h75.752c17.455 0 31.656 14.201 31.656 31.655v75.752z"/><path d="M84.531 40.97c-24.021 0-43.563 19.542-43.563 43.563 0 24.02 19.542 43.561 43.563 43.561s43.563-19.541 43.563-43.561c0-24.021-19.542-43.563-43.563-43.563zm0 72.123c-15.749 0-28.563-12.812-28.563-28.561 0-15.75 12.813-28.563 28.563-28.563s28.563 12.813 28.563 28.563c0 15.749-12.814 28.561-28.563 28.561zM129.921 28.251c-2.89 0-5.729 1.17-7.77 3.22a11.053 11.053 0 0 0-3.23 7.78c0 2.891 1.18 5.73 3.23 7.78 2.04 2.04 4.88 3.22 7.77 3.22 2.9 0 5.73-1.18 7.78-3.22 2.05-2.05 3.22-4.89 3.22-7.78 0-2.9-1.17-5.74-3.22-7.78-2.04-2.05-4.88-3.22-7.78-3.22z"/></symbol><symbol id="shape-instagram" viewBox="-660 346.6 49.7 49.7"><path d="M-635.2 376.4c2.7 0 5-2.2 5-5 0-1.1-.4-2.1-.9-2.9-.9-1.3-2.4-2.1-4-2.1-1.7 0-3.1.8-4 2.1-.6.8-.9 1.8-.9 2.9-.1 2.8 2.1 5 4.8 5zM-624.3 365.3v-4.8h-.6l-4.2.1v4.7z"/><path d="M-635.2 346.6c-13.7 0-24.8 11.1-24.8 24.8 0 13.7 11.1 24.8 24.8 24.8 13.7 0 24.8-11.1 24.8-24.8.1-13.7-11.1-24.8-24.8-24.8zm14.1 21.9v11.6c0 3-2.4 5.5-5.5 5.5h-17.3c-3 0-5.5-2.4-5.5-5.5v-17.4c0-3 2.4-5.5 5.5-5.5h17.3c3 0 5.5 2.4 5.5 5.5v5.8z"/><path d="M-627.5 371.4c0 4.3-3.5 7.7-7.7 7.7-4.3 0-7.7-3.5-7.7-7.7 0-1 .2-2 .6-2.9h-4.2v11.6c0 1.5 1.2 2.7 2.7 2.7h17.3c1.5 0 2.7-1.2 2.7-2.7v-11.6h-4.2c.3.9.5 1.9.5 2.9z"/></symbol><symbol id="shape-linkedin-2" viewBox="-78 211.1 438.5 419.1"><path d="M-72.6 347.3h94.2v282.9h-94.2zM330.8 373.1c-19.8-21.6-46-32.4-78.5-32.4-12 0-22.9 1.5-32.7 4.4-9.8 2.9-18.1 7.1-24.8 12.4-6.8 5.3-12.1 10.3-16.1 14.8-3.8 4.3-7.5 9.4-11.1 15.1v-40.2h-94l.3 13.7c.2 9.1.3 37.3.3 84.5s-.2 108.8-.6 184.7h93.9V472.3c0-9.7 1-17.4 3.1-23.1 4-9.7 10-17.8 18.1-24.4 8.1-6.6 18.1-9.9 30.1-9.9 16.4 0 28.4 5.7 36.1 17 7.7 11.3 11.6 27 11.6 47v151.3h93.9V468c.1-41.7-9.8-73.3-29.6-94.9zM-24.9 211.1c-15.8 0-28.6 4.6-38.4 13.8-9.8 9.2-14.7 20.9-14.7 35 0 13.9 4.8 25.5 14.3 34.8 9.5 9.3 22.1 14 37.7 14h.6c16 0 28.9-4.7 38.7-14 9.8-9.3 14.6-20.9 14.4-34.8-.2-14.1-5-25.7-14.6-35-9.5-9.2-22.2-13.8-38-13.8z"/></symbol><symbol id="shape-linkedin" viewBox="0 0 36.1 36.1"><g id="XMLID_2_"><path id="XMLID_3_" class="st0" d="M18 0C8.1 0 0 8.1 0 18s8.1 18 18 18 18-8.1 18-18c.1-9.9-8-18-18-18zm-4.4 24.6h-3.1v-9.9h3.1v9.9zM12 13.5c-1.1 0-1.9-.8-1.9-1.7 0-1 .7-1.7 1.9-1.7 1.1 0 1.8.7 1.9 1.7 0 .9-.8 1.7-1.9 1.7zm13.9 11.1h-3.5v-5.1c0-1.3-.5-2.3-1.8-2.3-.9 0-1.4.6-1.7 1.2-.1.2-.1.5-.1.8v5.3h-3.5v-9.9H19v1.5c.2-.7 1.3-1.6 3.1-1.6 2.2 0 3.9 1.4 3.9 4.5v5.6z"/></g></symbol><symbol id="shape-location" viewBox="0 0 60 60"><path d="M30 26c3.86 0 7-3.141 7-7s-3.14-7-7-7-7 3.141-7 7 3.14 7 7 7zm0-12c2.757 0 5 2.243 5 5s-2.243 5-5 5-5-2.243-5-5 2.243-5 5-5z"/><path d="M29.823 54.757L45.164 32.6c5.754-7.671 4.922-20.28-1.781-26.982C39.761 1.995 34.945 0 29.823 0s-9.938 1.995-13.56 5.617c-6.703 6.702-7.535 19.311-1.804 26.952l15.364 22.188zM17.677 7.031C20.922 3.787 25.235 2 29.823 2s8.901 1.787 12.146 5.031c6.05 6.049 6.795 17.437 1.573 24.399L29.823 51.243 16.082 31.4c-5.2-6.932-4.454-18.32 1.595-24.369z"/><path d="M42.117 43.007a1 1 0 0 0-.234 1.986C52.399 46.231 58 49.567 58 51.5c0 2.714-10.652 6.5-28 6.5S2 54.214 2 51.5c0-1.933 5.601-5.269 16.117-6.507a1 1 0 0 0-.234-1.986C7.354 44.247 0 47.739 0 51.5 0 55.724 10.305 60 30 60s30-4.276 30-8.5c0-3.761-7.354-7.253-17.883-8.493z"/></symbol><symbol id="shape-mail" viewBox="0 0 31.012 31.012"><path d="M25.109 21.51a.495.495 0 0 1-.342-.136l-5.754-5.398a.5.5 0 1 1 .685-.728l5.754 5.398a.5.5 0 0 1-.343.864zM5.902 21.51a.5.5 0 0 1-.343-.864l5.756-5.398a.5.5 0 0 1 .685.728l-5.756 5.398a.495.495 0 0 1-.342.136z"/><path d="M28.512 26.529H2.5a2.503 2.503 0 0 1-2.5-2.5V6.982c0-1.379 1.122-2.5 2.5-2.5h26.012c1.378 0 2.5 1.121 2.5 2.5v17.047c0 1.379-1.122 2.5-2.5 2.5zM2.5 5.482c-.827 0-1.5.673-1.5 1.5v17.047c0 .827.673 1.5 1.5 1.5h26.012c.827 0 1.5-.673 1.5-1.5V6.982c0-.827-.673-1.5-1.5-1.5H2.5z"/><path d="M15.506 18.018c-.665 0-1.33-.221-1.836-.662L.83 6.155a.501.501 0 0 1-.049-.706.503.503 0 0 1 .706-.048l12.84 11.2c.639.557 1.719.557 2.357 0L29.508 5.419a.5.5 0 0 1 .658.754L17.342 17.355c-.507.442-1.171.663-1.836.663z"/></symbol><symbol id="shape-minus" viewBox="0 0 533.333 533.333"><path d="M0 216.667v100c0 9.204 7.462 16.666 16.667 16.666h500c9.204 0 16.667-7.462 16.667-16.666v-100c0-9.204-7.463-16.667-16.667-16.667h-500C7.462 200 0 207.462 0 216.667z"/></symbol><symbol id="shape-phone-call" viewBox="0 0 473.806 473.806"><path d="M374.456 293.506c-9.7-10.1-21.4-15.5-33.8-15.5-12.3 0-24.1 5.3-34.2 15.4l-31.6 31.5c-2.6-1.4-5.2-2.7-7.7-4-3.6-1.8-7-3.5-9.9-5.3-29.6-18.8-56.5-43.3-82.3-75-12.5-15.8-20.9-29.1-27-42.6 8.2-7.5 15.8-15.3 23.2-22.8 2.8-2.8 5.6-5.7 8.4-8.5 21-21 21-48.2 0-69.2l-27.3-27.3c-3.1-3.1-6.3-6.3-9.3-9.5-6-6.2-12.3-12.6-18.8-18.6-9.7-9.6-21.3-14.7-33.5-14.7s-24 5.1-34 14.7l-.2.2-34 34.3c-12.8 12.8-20.1 28.4-21.7 46.5-2.4 29.2 6.2 56.4 12.8 74.2 16.2 43.7 40.4 84.2 76.5 127.6 43.8 52.3 96.5 93.6 156.7 122.7 23 10.9 53.7 23.8 88 26 2.1.1 4.3.2 6.3.2 23.1 0 42.5-8.3 57.7-24.8.1-.2.3-.3.4-.5 5.2-6.3 11.2-12 17.5-18.1 4.3-4.1 8.7-8.4 13-12.9 9.9-10.3 15.1-22.3 15.1-34.6 0-12.4-5.3-24.3-15.4-34.3l-54.9-55.1zm35.8 105.3c-.1 0-.1.1 0 0-3.9 4.2-7.9 8-12.2 12.2-6.5 6.2-13.1 12.7-19.3 20-10.1 10.8-22 15.9-37.6 15.9-1.5 0-3.1 0-4.6-.1-29.7-1.9-57.3-13.5-78-23.4-56.6-27.4-106.3-66.3-147.6-115.6-34.1-41.1-56.9-79.1-72-119.9-9.3-24.9-12.7-44.3-11.2-62.6 1-11.7 5.5-21.4 13.8-29.7l34.1-34.1c4.9-4.6 10.1-7.1 15.2-7.1 6.3 0 11.4 3.8 14.6 7l.3.3c6.1 5.7 11.9 11.6 18 17.9 3.1 3.2 6.3 6.4 9.5 9.7l27.3 27.3c10.6 10.6 10.6 20.4 0 31-2.9 2.9-5.7 5.8-8.6 8.6-8.4 8.6-16.4 16.6-25.1 24.4-.2.2-.4.3-.5.5-8.6 8.6-7 17-5.2 22.7l.3.9c7.1 17.2 17.1 33.4 32.3 52.7l.1.1c27.6 34 56.7 60.5 88.8 80.8 4.1 2.6 8.3 4.7 12.3 6.7 3.6 1.8 7 3.5 9.9 5.3.4.2.8.5 1.2.7 3.4 1.7 6.6 2.5 9.9 2.5 8.3 0 13.5-5.2 15.2-6.9l34.2-34.2c3.4-3.4 8.8-7.5 15.1-7.5 6.2 0 11.3 3.9 14.4 7.3l.2.2 55.1 55.1c10.3 10.2 10.3 20.7.1 31.3zM256.056 112.706c26.2 4.4 50 16.8 69 35.8s31.3 42.8 35.8 69c1.1 6.6 6.8 11.2 13.3 11.2.8 0 1.5-.1 2.3-.2 7.4-1.2 12.3-8.2 11.1-15.6-5.4-31.7-20.4-60.6-43.3-83.5s-51.8-37.9-83.5-43.3c-7.4-1.2-14.3 3.7-15.6 11s3.5 14.4 10.9 15.6zM473.256 209.006c-8.9-52.2-33.5-99.7-71.3-137.5s-85.3-62.4-137.5-71.3c-7.3-1.3-14.2 3.7-15.5 11-1.2 7.4 3.7 14.3 11.1 15.6 46.6 7.9 89.1 30 122.9 63.7 33.8 33.8 55.8 76.3 63.7 122.9 1.1 6.6 6.8 11.2 13.3 11.2.8 0 1.5-.1 2.3-.2 7.3-1.1 12.3-8.1 11-15.4z"/></symbol><symbol id="shape-plus" viewBox="0 0 533.333 533.333"><path d="M516.667 200H333.333V16.667C333.333 7.462 325.871 0 316.667 0h-100C207.462 0 200 7.462 200 16.667V200H16.667C7.462 200 0 207.462 0 216.667v100c0 9.204 7.462 16.666 16.667 16.666H200v183.334c0 9.204 7.462 16.666 16.667 16.666h100c9.204 0 16.667-7.462 16.667-16.666V333.333h183.333c9.204 0 16.667-7.462 16.667-16.666v-100c-.001-9.205-7.463-16.667-16.667-16.667z"/></symbol><symbol id="shape-telephone" viewBox="0 0 348.077 348.077"><path d="M340.273 275.083l-53.755-53.761c-10.707-10.664-28.438-10.34-39.518.744l-27.082 27.076a792.327 792.327 0 0 1-5.344-2.973c-17.102-9.476-40.509-22.464-65.14-47.113-24.704-24.701-37.704-48.144-47.209-65.257-1.003-1.813-1.964-3.561-2.913-5.221l18.176-18.149 8.936-8.947c11.097-11.1 11.403-28.826.721-39.521L73.39 8.194c-10.682-10.68-28.421-10.356-39.518.744l-15.15 15.237.414.411c-5.08 6.482-9.325 13.958-12.484 22.02C3.74 54.28 1.927 61.603 1.098 68.941-6 127.785 20.89 181.564 93.866 254.541c100.875 100.868 182.167 93.248 185.674 92.876 7.638-.913 14.958-2.738 22.397-5.627 7.992-3.122 15.463-7.361 21.941-12.43l.331.294 15.348-15.029c11.074-11.098 11.393-28.83.716-39.542z"/></symbol><symbol id="shape-tick" viewBox="0 0 442.533 442.533"><path d="M434.539 98.499l-38.828-38.828c-5.324-5.328-11.799-7.993-19.41-7.993-7.618 0-14.093 2.665-19.417 7.993L169.59 247.248l-83.939-84.225c-5.33-5.33-11.801-7.992-19.412-7.992-7.616 0-14.087 2.662-19.417 7.992L7.994 201.852C2.664 207.181 0 213.654 0 221.269c0 7.609 2.664 14.088 7.994 19.416l103.351 103.349 38.831 38.828c5.327 5.332 11.8 7.994 19.414 7.994 7.611 0 14.084-2.669 19.414-7.994l38.83-38.828L434.539 137.33c5.325-5.33 7.994-11.802 7.994-19.417.004-7.611-2.669-14.084-7.994-19.414z"/></symbol><symbol id="shape-twitter-2" viewBox="-72 238.2 450 365.4"><path d="M378 281.6c-17.7 7.6-35.4 12.4-53.1 14.3 20-12 33.5-28.9 40.5-50.8-18.3 10.8-37.8 18.3-58.5 22.3-18.3-19.4-40.7-29.1-67.4-29.1-25.5 0-47.2 9-65.2 27s-27 39.7-27 65.2c0 6.9.8 13.9 2.3 21.1-37.7-1.9-73-11.4-106.1-28.4-33-17-61.1-39.7-84.1-68.1-8.4 14.3-12.6 29.8-12.6 46.5 0 15.8 3.7 30.5 11.1 44 7.4 13.5 17.4 24.5 30 32.8-14.8-.6-28.7-4.5-41.7-11.7v1.1c0 22.3 7 41.8 21 58.7 14 16.8 31.6 27.5 53 31.8-8 2.1-16.1 3.1-24.3 3.1-5.3 0-11.1-.5-17.4-1.4 5.9 18.5 16.8 33.6 32.5 45.5 15.8 11.9 33.7 18 53.7 18.4C31.2 550.2-7 563.3-49.8 563.3c-8.2 0-15.6-.4-22.3-1.1 42.8 27.6 90 41.4 141.6 41.4 32.7 0 63.5-5.2 92.2-15.6 28.7-10.4 53.3-24.3 73.7-41.7 20.4-17.4 37.9-37.4 52.7-60.1 14.8-22.7 25.7-46.3 33-70.9 7.2-24.7 10.8-49.3 10.8-74.1 0-5.3-.1-9.3-.3-12 18.2-13.1 33.6-29 46.4-47.6z"/></symbol><symbol id="shape-twitter" viewBox="-744 316.9 96 96"><path class="st0" d="M-696 316.9c-26.5 0-48 21.5-48 48s21.5 48 48 48 48-21.5 48-48-21.5-48-48-48zm19.5 39.3v1.2c0 12.5-9.5 26.9-26.9 26.9-5.3 0-10.3-1.6-14.5-4.2.7.1 1.5.1 2.3.1 4.4 0 8.5-1.5 11.7-4-4.1-.1-7.6-2.8-8.8-6.6.6.1 1.2.2 1.8.2.9 0 1.7-.1 2.5-.3-4.3-.9-7.6-4.7-7.6-9.3v-.1c1.3.7 2.7 1.1 4.3 1.2-2.5-1.7-4.2-4.6-4.2-7.9 0-1.7.5-3.4 1.3-4.8 4.7 5.7 11.6 9.5 19.5 9.9-.2-.7-.2-1.4-.2-2.2 0-5.2 4.2-9.5 9.5-9.5 2.7 0 5.2 1.1 6.9 3 2.2-.4 4.2-1.2 6-2.3-.7 2.2-2.2 4.1-4.2 5.2 1.9-.2 3.7-.7 5.4-1.5-1.3 2-2.9 3.7-4.8 5z"/></symbol><symbol id="shape-youtube-2" viewBox="0 0 90 90"><path d="M70.939 65.832H66l.023-2.869a2.329 2.329 0 0 1 2.326-2.318h.315a2.332 2.332 0 0 1 2.332 2.318l-.057 2.869zm-18.526-6.148c-1.253 0-2.278.842-2.278 1.873V75.51c0 1.029 1.025 1.869 2.278 1.869 1.258 0 2.284-.84 2.284-1.869V61.557c0-1.032-1.026-1.873-2.284-1.873zM82.5 51.879v26.544C82.5 84.79 76.979 90 70.23 90H19.771C13.02 90 7.5 84.79 7.5 78.423V51.879c0-6.367 5.52-11.578 12.271-11.578H70.23c6.749 0 12.27 5.211 12.27 11.578zM23.137 81.305l-.004-27.961 6.255.002v-4.143l-16.674-.025v4.073l5.205.015v28.039h5.218zm18.75-23.796h-5.215V72.44c0 2.16.131 3.24-.008 3.621-.424 1.158-2.33 2.388-3.073.125-.126-.396-.015-1.591-.017-3.643l-.021-15.034h-5.186l.016 14.798c.004 2.268-.051 3.959.018 4.729.127 1.357.082 2.939 1.341 3.843 2.346 1.69 6.843-.252 7.968-2.668l-.01 3.083 4.188.005-.001-23.79zM58.57 74.607l-.011-12.427c-.004-4.736-3.547-7.572-8.356-3.74l.021-9.239-5.209.008-.025 31.89 4.284-.062.39-1.986c5.473 5.021 8.914 1.58 8.906-4.444zm16.321-1.647l-3.91.021c-.002.155-.008.334-.01.529v2.182c0 1.168-.965 2.119-2.137 2.119h-.766c-1.174 0-2.139-.951-2.139-2.119v-5.739h8.954v-3.37c0-2.463-.063-4.925-.267-6.333-.641-4.454-6.893-5.161-10.051-2.881a5.887 5.887 0 0 0-2.188 2.945c-.444 1.281-.665 3.031-.665 5.254v7.41c.002 12.318 14.964 10.577 13.179-.018zM54.833 32.732a3.55 3.55 0 0 0 1.254 1.584c.56.394 1.276.592 2.134.592.752 0 1.418-.203 1.998-.622.578-.417 1.065-1.04 1.463-1.871l-.099 2.046h5.813V9.74H62.82v19.24a1.907 1.907 0 0 1-3.811 0V9.74h-4.776v16.674c0 2.124.039 3.54.102 4.258.065.713.229 1.397.498 2.06zM37.217 18.77c0-2.373.198-4.226.591-5.562.396-1.331 1.107-2.401 2.137-3.208 1.027-.811 2.342-1.217 3.941-1.217 1.345 0 2.497.264 3.459.781.967.52 1.713 1.195 2.23 2.028a8 8 0 0 1 1.076 2.574c.195.891.291 2.235.291 4.048v6.252c0 2.293-.092 3.98-.271 5.051a8.006 8.006 0 0 1-1.146 3.004c-.58.924-1.329 1.615-2.237 2.056-.918.445-1.968.663-3.154.663-1.325 0-2.441-.183-3.361-.565-.923-.38-1.636-.953-2.144-1.714-.513-.762-.874-1.69-1.092-2.772-.219-1.081-.323-2.707-.323-4.874l.003-6.545zm4.553 9.82c0 1.4 1.042 2.543 2.311 2.543 1.27 0 2.308-1.143 2.308-2.543V15.43c0-1.398-1.038-2.541-2.308-2.541-1.269 0-2.311 1.143-2.311 2.541v13.16zm-16.088 6.645h5.484l.006-18.96L37.652.033h-5.998l-3.445 12.064L24.715 0h-5.936l6.894 16.284.009 18.951z"/></symbol><symbol id="shape-youtube" viewBox="0 0 97.75 97.75"><path d="M25.676 52.482h3.875v20.973h3.666V52.482h3.947v-3.435H25.676zM56.674 55.046c-1.212 0-2.343.662-3.406 1.972v-7.972h-3.295v24.409h3.295v-1.762c1.103 1.361 2.233 2.013 3.406 2.013 1.311 0 2.193-.69 2.633-2.044.221-.771.334-1.982.334-3.665v-7.242c0-1.722-.113-2.924-.334-3.655-.439-1.364-1.323-2.054-2.633-2.054zm-.33 13.209c0 1.644-.482 2.454-1.434 2.454-.541 0-1.092-.259-1.643-.811V58.814c.551-.545 1.102-.803 1.643-.803.951 0 1.434.842 1.434 2.482v7.762zM43.824 69.167c-.731 1.033-1.422 1.542-2.084 1.542-.44 0-.691-.259-.771-.771-.03-.106-.03-.508-.03-1.28v-13.39h-3.296v14.379c0 1.285.111 2.153.291 2.705.331.922 1.063 1.354 2.123 1.354 1.213 0 2.457-.732 3.767-2.234v1.984h3.298V55.268h-3.298v13.899zM46.653 38.466c1.073 0 1.588-.851 1.588-2.551v-7.731c0-1.701-.515-2.548-1.588-2.548-1.074 0-1.59.848-1.59 2.548v7.731c0 1.701.516 2.551 1.59 2.551z"/><path d="M48.875 0C21.882 0 0 21.882 0 48.875S21.882 97.75 48.875 97.75 97.75 75.868 97.75 48.875 75.868 0 48.875 0zm5.436 22.86h3.321v13.532c0 .781 0 1.186.04 1.295.073.516.335.78.781.78.666 0 1.365-.516 2.104-1.559V22.86h3.33v18.379h-3.33v-2.004c-1.326 1.52-2.59 2.257-3.805 2.257-1.072 0-1.812-.435-2.146-1.365-.184-.557-.295-1.436-.295-2.733V22.86zm-12.578 5.993c0-1.965.334-3.401 1.042-4.33.921-1.257 2.218-1.885 3.878-1.885 1.668 0 2.964.628 3.885 1.885.698.928 1.032 2.365 1.032 4.33v6.436c0 1.954-.334 3.403-1.032 4.322-.921 1.254-2.217 1.881-3.885 1.881-1.66 0-2.957-.627-3.878-1.881-.708-.919-1.042-2.369-1.042-4.322v-6.436zm-8.906-12.277l2.622 9.685 2.519-9.685h3.735L37.26 31.251v9.989h-3.692v-9.989c-.335-1.77-1.074-4.363-2.259-7.803-.778-2.289-1.589-4.585-2.367-6.872h3.885zm42.359 58.485c-.668 2.899-3.039 5.039-5.894 5.358-6.763.755-13.604.759-20.42.755-6.813.004-13.658 0-20.419-.755-2.855-.319-5.227-2.458-5.893-5.358-.951-4.129-.951-8.638-.951-12.89s.012-8.76.962-12.89c.667-2.9 3.037-5.04 5.892-5.358 6.762-.755 13.606-.759 20.421-.755 6.813-.004 13.657 0 20.419.755 2.855.319 5.227 2.458 5.896 5.358.948 4.13.942 8.638.942 12.89s-.004 8.761-.955 12.89z"/><path d="M67.17 55.046c-1.686 0-2.995.619-3.947 1.864-.699.92-1.018 2.342-1.018 4.285v6.371c0 1.933.357 3.365 1.059 4.276.951 1.242 2.264 1.863 3.988 1.863 1.721 0 3.072-.651 3.984-1.972.4-.584.66-1.245.77-1.975a25.5 25.5 0 0 0 .07-2.124v-.479h-3.361c0 1.32-.043 2.053-.072 2.232-.188.881-.662 1.321-1.473 1.321-1.132 0-1.686-.84-1.686-2.522V64.96h6.592v-3.767c0-1.943-.329-3.365-1.02-4.285-.921-1.242-2.232-1.862-3.886-1.862zm1.612 7.172h-3.296v-1.683c0-1.682.553-2.523 1.654-2.523 1.09 0 1.642.842 1.642 2.523v1.683z"/></symbol></svg>