<svg version="1.1" id="Capa_1" xmlns="http://www.w3.org/2000/svg" x="0" y="0" viewBox="-78 211.1 438.5 419.1" xml:space="preserve"><path d="M-72.6 347.3h94.2v282.9h-94.2zM330.8 373.1c-19.8-21.6-46-32.4-78.5-32.4-12 0-22.9 1.5-32.7 4.4-9.8 2.9-18.1 7.1-24.8 12.4-6.8 5.3-12.1 10.3-16.1 14.8-3.8 4.3-7.5 9.4-11.1 15.1v-40.2h-94l.3 13.7c.2 9.1.3 37.3.3 84.5s-.2 108.8-.6 184.7h93.9V472.3c0-9.7 1-17.4 3.1-23.1 4-9.7 10-17.8 18.1-24.4 8.1-6.6 18.1-9.9 30.1-9.9 16.4 0 28.4 5.7 36.1 17 7.7 11.3 11.6 27 11.6 47v151.3h93.9V468c.1-41.7-9.8-73.3-29.6-94.9zM-24.9 211.1c-15.8 0-28.6 4.6-38.4 13.8-9.8 9.2-14.7 20.9-14.7 35 0 13.9 4.8 25.5 14.3 34.8 9.5 9.3 22.1 14 37.7 14h.6c16 0 28.9-4.7 38.7-14 9.8-9.3 14.6-20.9 14.4-34.8-.2-14.1-5-25.7-14.6-35-9.5-9.2-22.2-13.8-38-13.8z"/></svg>