<svg version="1.1" id="Capa_1" xmlns="http://www.w3.org/2000/svg" x="0" y="0" viewBox="-72 238.2 450 365.4" xml:space="preserve"><path d="M378 281.6c-17.7 7.6-35.4 12.4-53.1 14.3 20-12 33.5-28.9 40.5-50.8-18.3 10.8-37.8 18.3-58.5 22.3-18.3-19.4-40.7-29.1-67.4-29.1-25.5 0-47.2 9-65.2 27s-27 39.7-27 65.2c0 6.9.8 13.9 2.3 21.1-37.7-1.9-73-11.4-106.1-28.4-33-17-61.1-39.7-84.1-68.1-8.4 14.3-12.6 29.8-12.6 46.5 0 15.8 3.7 30.5 11.1 44 7.4 13.5 17.4 24.5 30 32.8-14.8-.6-28.7-4.5-41.7-11.7v1.1c0 22.3 7 41.8 21 58.7 14 16.8 31.6 27.5 53 31.8-8 2.1-16.1 3.1-24.3 3.1-5.3 0-11.1-.5-17.4-1.4 5.9 18.5 16.8 33.6 32.5 45.5 15.8 11.9 33.7 18 53.7 18.4C31.2 550.2-7 563.3-49.8 563.3c-8.2 0-15.6-.4-22.3-1.1 42.8 27.6 90 41.4 141.6 41.4 32.7 0 63.5-5.2 92.2-15.6 28.7-10.4 53.3-24.3 73.7-41.7 20.4-17.4 37.9-37.4 52.7-60.1 14.8-22.7 25.7-46.3 33-70.9 7.2-24.7 10.8-49.3 10.8-74.1 0-5.3-.1-9.3-.3-12 18.2-13.1 33.6-29 46.4-47.6z"/></svg>